<?xml version="1.0" encoding="UTF-8"?>
<svg version="1.1" xmlns="http://www.w3.org/2000/svg" width="512" height="512">
<path d="M0 0 C7.05276706 4.7184884 11.2612254 10.69252136 13 19 C14.55136388 31.84325834 6.78896491 44.16006951 1.60861206 55.48956299 C0.34418893 58.2548845 -0.91533724 61.02239048 -2.17358398 63.79052734 C-3.48441604 66.67427478 -4.79551062 69.55789887 -6.108078 72.44085693 C-10.45497177 81.98934052 -14.76189014 91.55560314 -19.0625 101.125 C-19.8074005 102.78151839 -20.55235508 104.43801246 -21.29736328 106.09448242 C-22.78714151 109.40697621 -24.2767102 112.71956408 -25.76611328 116.03222656 C-29.13362966 123.52161245 -32.50392888 131.0097461 -35.87399292 138.49798584 C-37.74944019 142.66527369 -39.62471126 146.83264081 -41.5 151 C-42.24999915 152.66666705 -42.99999915 154.33333371 -43.75 156 C-44.12125 156.825 -44.4925 157.65 -44.875 158.5 C-64 201 -83.125 243.5 -102.25 286 C-102.62119461 286.82487915 -102.99238922 287.6497583 -103.37483215 288.49963379 C-104.12538488 290.1675242 -104.87594437 291.83541157 -105.62651062 293.5032959 C-107.49310933 297.65121434 -109.35959307 301.79918444 -111.22583008 305.94726562 C-114.70065884 313.6704395 -118.17658181 321.393115 -121.65646362 329.11401367 C-123.27767962 332.71122868 -124.89826125 336.30872932 -126.51879883 339.90625 C-127.28215602 341.60040224 -128.04581464 343.29441871 -128.80981445 344.98828125 C-129.87791252 347.35641272 -130.94490444 349.72503999 -132.01171875 352.09375 C-132.34978546 352.8425946 -132.68785217 353.59143921 -133.03616333 354.36297607 C-134.70118906 358.06239304 -136.33744335 361.77079436 -137.92333984 365.50488281 C-138.23221634 366.22776489 -138.54109283 366.95064697 -138.85932922 367.69543457 C-139.43317863 369.0434575 -140.00094656 370.39409499 -140.56095886 371.7479248 C-143.60255457 378.88102693 -147.85400088 384.74069663 -154.73828125 388.4921875 C-162.66709138 391.67248478 -169.68602234 392.08636221 -177.76171875 389.1015625 C-184.77763353 385.64870392 -189.34031943 380.28782529 -192 373 C-196.15320005 358.74442145 -187.38094133 345.13459 -181.60861206 332.51043701 C-180.34418893 329.7451155 -179.08466276 326.97760952 -177.82641602 324.20947266 C-176.51558396 321.32572522 -175.20448938 318.44210113 -173.891922 315.55914307 C-169.54502823 306.01065948 -165.23810986 296.44439686 -160.9375 286.875 C-160.1925995 285.21848161 -159.44764492 283.56198754 -158.70263672 281.90551758 C-157.21285849 278.59302379 -155.7232898 275.28043592 -154.23388672 271.96777344 C-150.86637034 264.47838755 -147.49607112 256.9902539 -144.12600708 249.50201416 C-142.25055981 245.33472631 -140.37528874 241.16735919 -138.5 237 C-137.75000085 235.33333295 -137.00000085 233.66666629 -136.25 232 C-135.87875 231.175 -135.5075 230.35 -135.125 229.5 C-116 187 -96.875 144.5 -77.75 102 C-77.37880035 101.17511078 -77.00760071 100.35022156 -76.62515259 99.50033569 C-75.87464734 97.83254853 -75.12413871 96.16476288 -74.37362671 94.49697876 C-72.50632924 90.3474682 -70.63908937 86.19793174 -68.77197266 82.04833984 C-65.30544697 74.34428551 -61.83838618 66.64047348 -58.36932373 58.93756104 C-56.75803974 55.35967766 -55.14707545 51.78165036 -53.53613281 48.20361328 C-52.77945518 46.52320345 -52.02262669 44.84286153 -51.265625 43.16259766 C-50.55274014 41.58023865 -49.84009469 39.99777176 -49.12770081 38.41519165 C-48.43944944 36.88666936 -47.75044758 35.35848475 -47.06065369 33.83065796 C-45.29038644 29.90226799 -43.54547857 25.96474389 -41.83422852 22.01025391 C-41.4787796 21.19422699 -41.12333069 20.37820007 -40.7571106 19.53744507 C-40.08316809 17.98763185 -39.41478718 16.43538304 -38.75314331 14.88027954 C-35.20168392 6.7373064 -30.82639577 1.87649704 -22.5 -1.5 C-14.55698481 -3.96167826 -7.54237641 -3.71195488 0 0 Z " fill="#A083F6" transform="translate(346,62)"/>
<path d="M0 0 C13.21504005 8.62566812 24.27042714 21.96548761 35.3671875 33.0390625 C36.76656164 34.43413264 38.16593607 35.82920248 39.56534111 37.22424161 C43.45133326 41.09850719 47.33525532 44.97483585 51.21712577 48.85323107 C56.20554687 53.83715791 61.20047556 58.81444103 66.20105922 63.78616393 C70.56559214 68.12639325 74.92176703 72.47492469 79.27502823 76.82645798 C81.11524923 78.6636636 82.95795763 80.49838141 84.80324936 82.33049393 C87.38234937 84.89246453 89.95173625 87.4638165 92.51904297 90.03759766 C93.27343155 90.78277145 94.02782013 91.52794525 94.80506897 92.29570007 C103.25740107 100.81469655 108.13590618 107.68256641 108.12280273 119.9284668 C107.81014107 134.15200986 95.26663803 143.38094861 85.83959961 152.8215332 C84.56943245 154.09914772 84.56943245 154.09914772 83.27360535 155.40257263 C80.98226811 157.70588206 78.68873534 160.00697074 76.39364696 162.30654168 C74.95469041 163.74845546 73.5163116 165.19094323 72.07809639 166.63359642 C67.56221702 171.16308799 63.04438695 175.69062005 58.52364057 180.21525413 C53.33253164 185.4108547 48.14805504 190.61295674 42.96916193 195.82073337 C38.94279058 199.86876949 34.9106258 203.91097543 30.874075 207.94886082 C28.47257374 210.35140492 26.07351243 212.75626487 23.68049431 215.16726112 C21.01271299 217.85213647 18.33558373 220.52734429 15.65600586 223.20043945 C14.87604248 223.98961761 14.0960791 224.77879578 13.29248047 225.59188843 C4.9738313 233.84779986 -1.48565041 237.98938405 -13.421875 238.00219727 C-21.16703314 237.84457061 -25.42289479 235.50177995 -31 230.375 C-36.27077897 224.72001846 -38.16188017 218.29658803 -38.1875 210.6875 C-37.32342115 199.83016143 -30.15875727 192.19839201 -22.71337891 184.87280273 C-21.62941833 183.78818504 -21.62941833 183.78818504 -20.52355957 182.68165588 C-18.16077621 180.32094318 -15.78758618 177.97100324 -13.4140625 175.62109375 C-11.76288345 173.97551676 -10.11237056 172.32927109 -8.4624939 170.68238831 C-4.13891989 166.3702149 0.19358997 162.06713107 4.52807617 157.76593018 C8.95778452 153.36702605 13.37890893 148.95951289 17.80078125 144.55273438 C26.46301353 135.92258177 35.13471831 127.30201526 43.8125 118.6875 C39.67962287 113.75111254 35.37738978 109.13408902 30.78491211 104.62573242 C30.10931747 103.95802322 29.43372284 103.29031403 28.73765564 102.60237122 C27.28185729 101.16366756 25.82501719 99.72601741 24.36723137 98.28932762 C21.25930905 95.22374985 18.16092192 92.14860941 15.06190586 89.07403278 C9.30505016 83.36275456 3.54451119 77.6553282 -2.23266602 71.96459961 C-6.26404945 67.99281103 -10.28293748 64.00874391 -14.29400444 60.01644325 C-15.81760938 58.50452985 -17.34572431 56.99714645 -18.87852669 55.49455833 C-21.02729245 53.38709801 -23.15972097 51.26426786 -25.28930664 49.13745117 C-25.91645569 48.52984955 -26.54360474 47.92224792 -27.1897583 47.29623413 C-33.26987093 41.1599154 -37.73059644 33.69065929 -38.2578125 24.9140625 C-38.01467615 17.21474488 -35.86848173 11.3453309 -30.32421875 5.8359375 C-22.21573514 -1.58538648 -10.59661459 -4.58292403 0 0 Z " fill="#9E82F5" transform="translate(404.1875,146.3125)"/>
<path d="M0 0 C6.97381239 3.58047255 11.65186935 7.61009053 14.53125 15.01953125 C16.66060771 21.9978068 16.80612364 28.49012968 14.25 35.375 C10.5733273 41.28367375 5.69735178 46.20748689 0.77587891 51.07617188 C0.05323853 51.79910431 -0.66940186 52.52203674 -1.41394043 53.26687622 C-3.77905812 55.6306121 -6.15115738 57.98720442 -8.5234375 60.34375 C-10.1743978 61.99097608 -11.82491407 63.63864731 -13.4750061 65.28674316 C-17.80077942 69.60491221 -22.13252695 73.9170389 -26.46557617 78.22790527 C-30.89345821 82.63525963 -35.31562238 87.04834296 -39.73828125 91.4609375 C-48.40328967 100.10455262 -57.07462477 108.74179069 -65.75 117.375 C-64.42259015 120.32192006 -62.98503074 122.38315798 -60.68911743 124.6494751 C-60.06108719 125.27447403 -59.43305695 125.89947296 -58.78599548 126.54341125 C-58.09816483 127.21776718 -57.41033417 127.89212311 -56.70166016 128.58691406 C-55.97627548 129.30616562 -55.25089081 130.02541718 -54.50352478 130.76646423 C-52.92818747 132.32749816 -51.35062255 133.88628654 -49.77110672 135.44309235 C-47.26925398 137.91015809 -44.77456157 140.38425542 -42.28182983 142.86053467 C-35.19337102 149.90009905 -28.09394333 156.92852158 -20.98535156 163.94775391 C-16.63678648 168.24264411 -12.29810096 172.54731317 -7.96528244 176.85808563 C-6.31449485 178.49648225 -4.65992501 180.13107734 -3.00148392 181.76172638 C-0.67743442 184.04718424 1.63388403 186.34484728 3.94287109 188.64550781 C4.62665329 189.31176682 5.31043549 189.97802582 6.01493835 190.66447449 C11.85118123 196.52474074 15.70215155 202.66005507 16.28125 211.0859375 C16.18093318 218.43414491 13.96671711 224.71732165 9.25 230.375 C2.67721201 236.60257854 -4.1783071 238.91605118 -13.203125 238.68359375 C-25.41475761 237.20396342 -33.9181849 226.35776085 -42.13183594 218.18603516 C-43.48457359 216.84556374 -43.48457359 216.84556374 -44.86463928 215.47801208 C-47.82487435 212.54370009 -50.77993069 209.60420324 -53.734375 206.6640625 C-54.75830935 205.64549729 -55.78224788 204.62693627 -56.80619049 203.60837936 C-61.06526775 199.37087381 -65.32292667 195.13195162 -69.57688522 190.88930702 C-75.64492095 184.83752717 -81.72131073 178.79442079 -87.80958915 172.76300395 C-92.10817313 168.50319142 -96.39706276 164.23376982 -100.67894387 159.95716894 C-103.22929857 157.41045342 -105.78359789 154.86802561 -108.34838104 152.3358345 C-111.2081351 149.51191547 -114.04755687 146.66834992 -116.88574219 143.82275391 C-117.72841141 142.99649002 -118.57108063 142.17022614 -119.43928528 141.31892395 C-126.07831865 134.60876377 -130.32381761 128.13669449 -130.3125 118.4375 C-130.34537109 116.78427734 -130.34537109 116.78427734 -130.37890625 115.09765625 C-128.6716311 104.99185984 -122.38648994 98.28702521 -115.31323242 91.30712891 C-114.3589281 90.34767427 -113.40569581 89.38715237 -112.45344543 88.42565918 C-109.88622003 85.84005705 -107.30371168 83.2702611 -104.71743178 80.70373583 C-102.00140117 78.00420009 -99.29810112 75.29196412 -96.59284973 72.58163452 C-92.05137307 68.03565011 -87.49985715 63.49991169 -82.94213867 58.97021484 C-77.68501108 53.745162 -72.44413399 48.50423069 -67.21164817 43.25450957 C-62.15973592 38.18669627 -57.09654553 33.13029656 -52.028162 28.07896042 C-49.87914844 25.93679035 -47.73410009 23.79076452 -45.59221458 21.64146805 C-43.06746469 19.109018 -40.53293247 16.58677039 -37.99073601 14.07183838 C-36.62357493 12.71476876 -35.26610919 11.34795314 -33.9090271 9.98080444 C-24.58891996 0.80386393 -13.12838461 -5.43632421 0 0 Z " fill="#A083F6" transform="translate(129.75,137.625)"/>
</svg>
